<svg id="istanbul-map-svg" viewBox="0 0 800 428" xmlns="http://www.w3.org/2000/svg" preserveAspectRatio="xMidYMid meet">
<path id="Adalar" class="district" data-district="Adalar" d="M 458.51,410.24 L 457.48,409.03 L 458.46,408.96 L 458.51,410.24 Z M 435.86,361.84 L 436.38,363.99 L 435.09,365.76 L 431.75,366.11 L 431.88,364.66 L 429.26,361.27 L 433.98,359.90 L 435.86,361.84 Z M 443.89,377.27 L 443.75,375.41 L 444.22,374.91 L 444.79,375.40 L 444.54,376.55 L 443.89,377.27 Z M 472.08,394.59 L 471.13,395.19 L 469.15,393.48 L 470.10,390.57 L 472.08,394.59 Z M 462.42,399.77 L 458.92,399.71 L 457.06,397.81 L 458.91,395.43 L 457.20,391.77 L 458.27,388.48 L 456.29,388.14 L 455.99,387.84 L 458.86,387.17 L 459.26,382.67 L 466.61,380.49 L 468.48,383.21 L 463.42,389.71 L 463.59,395.50 L 462.70,396.59 L 463.02,398.77 L 462.42,399.77 Z M 443.74,381.00 L 449.34,377.67 L 448.76,376.24 L 452.05,375.46 L 454.78,381.01 L 454.00,380.45 L 453.75,381.25 L 454.71,381.31 L 452.04,383.39 L 448.11,384.11 L 448.58,382.89 L 447.37,382.25 L 446.27,382.88 L 446.61,384.42 L 443.40,383.87 L 443.74,381.00 Z M 436.43,375.76 L 435.74,374.57 L 441.19,375.49 L 441.26,377.68 L 442.34,378.34 L 438.99,381.05 L 435.98,380.38 L 434.41,378.82 L 436.43,375.76 Z M 403.99,380.18 L 401.92,380.98 L 401.96,380.05 L 403.15,379.38 L 403.71,379.68 L 403.99,380.18 Z M 410.03,385.06 L 412.56,385.88 L 411.34,386.68 L 410.03,385.06 Z" tabindex="0" role="button" aria-label="Adalar"></path>
<path id="Şile" class="district" data-district="Şile" d="M 653.84,220.91 L 653.77,220.47 L 653.98,220.89 L 653.84,220.91 Z M 654.30,219.79 L 654.24,219.51 L 654.37,219.71 L 654.30,219.79 Z M 653.38,220.60 L 652.82,220.77 L 652.88,220.05 L 653.38,220.60 Z M 651.77,219.89 L 651.36,219.49 L 651.77,219.50 L 651.77,219.89 Z M 699.48,233.13 L 699.26,232.92 L 699.45,232.91 L 699.48,233.13 Z M 699.91,233.30 L 699.98,233.08 L 700.17,232.87 L 699.91,233.30 Z M 707.42,231.76 L 707.26,231.77 L 707.40,231.66 L 707.42,231.76 Z M 707.55,231.66 L 707.47,231.64 L 707.55,231.62 L 707.55,231.66 Z M 707.70,231.57 L 707.61,231.59 L 707.67,231.50 L 707.70,231.57 Z M 710.30,231.26 L 710.15,231.18 L 710.37,231.06 L 710.30,231.26 Z M 720.66,233.25 L 720.56,233.17 L 720.69,233.18 L 720.66,233.25 Z M 691.15,231.95 L 702.84,233.89 L 705.40,231.77 L 708.48,232.43 L 709.61,231.04 L 709.69,232.57 L 710.73,233.24 L 715.28,231.50 L 718.81,232.47 L 718.32,233.27 L 718.84,233.85 L 720.12,232.60 L 720.60,233.35 L 723.87,234.19 L 723.83,236.10 L 726.50,235.09 L 735.68,240.44 L 746.06,242.93 L 747.82,242.65 L 748.19,241.72 L 749.74,242.58 L 748.47,241.27 L 752.09,240.33 L 753.30,241.51 L 757.20,241.16 L 756.79,241.93 L 757.73,242.84 L 761.12,241.04 L 765.41,240.44 L 769.27,240.71 L 770.27,241.87 L 771.01,240.50 L 773.79,240.86 L 774.41,241.41 L 772.83,242.41 L 773.66,244.12 L 773.46,250.13 L 771.24,252.51 L 771.98,253.17 L 772.93,252.51 L 771.89,253.48 L 773.28,256.92 L 772.68,259.60 L 773.83,262.75 L 778.92,264.69 L 788.63,263.72 L 790.00,266.21 L 789.04,268.49 L 789.75,271.59 L 788.31,272.08 L 788.52,273.56 L 783.65,271.64 L 782.09,270.07 L 774.85,269.41 L 774.35,270.30 L 769.14,267.33 L 767.40,267.84 L 763.84,266.73 L 764.17,270.52 L 761.90,273.61 L 763.90,278.20 L 764.12,282.01 L 761.91,282.45 L 762.09,284.86 L 759.60,286.66 L 759.68,294.03 L 755.23,293.40 L 754.33,294.03 L 751.96,298.74 L 749.68,299.80 L 745.99,303.77 L 744.23,303.78 L 742.79,305.62 L 741.13,305.93 L 741.26,308.53 L 740.08,309.20 L 738.24,307.92 L 733.12,307.11 L 731.03,304.34 L 727.81,305.54 L 726.57,309.72 L 725.36,307.40 L 725.93,304.88 L 722.47,304.06 L 721.34,301.66 L 720.34,302.00 L 719.44,300.91 L 716.14,302.65 L 712.56,302.77 L 709.92,300.46 L 706.38,293.85 L 705.23,297.00 L 703.48,296.71 L 703.62,293.85 L 702.11,292.11 L 700.70,292.71 L 699.57,295.87 L 697.63,297.79 L 694.96,297.03 L 694.46,298.69 L 691.69,297.41 L 690.48,298.69 L 691.43,301.57 L 691.23,305.65 L 691.75,307.17 L 694.00,307.93 L 694.36,309.74 L 696.47,311.35 L 695.92,314.18 L 693.58,314.56 L 693.72,315.21 L 691.27,316.68 L 689.47,320.33 L 685.60,321.12 L 685.21,323.34 L 684.18,323.67 L 685.24,325.01 L 682.38,327.23 L 682.26,330.94 L 680.55,333.00 L 678.22,333.80 L 677.63,332.79 L 674.55,335.22 L 671.32,334.02 L 671.19,332.35 L 669.81,331.24 L 662.69,330.42 L 654.83,325.07 L 653.76,325.72 L 652.20,325.05 L 651.39,322.50 L 652.17,320.08 L 653.55,319.20 L 653.89,315.08 L 653.05,311.41 L 651.59,312.41 L 650.82,311.62 L 649.05,313.51 L 650.20,308.76 L 648.37,304.57 L 649.58,301.41 L 645.77,299.15 L 640.84,298.28 L 639.41,296.97 L 639.07,298.18 L 636.35,297.23 L 633.01,294.80 L 631.21,294.98 L 630.15,296.80 L 625.37,296.06 L 624.65,296.77 L 624.86,297.98 L 622.77,297.47 L 621.28,298.75 L 620.32,297.39 L 620.90,296.37 L 619.03,293.29 L 617.10,292.29 L 615.20,293.20 L 614.74,294.37 L 613.60,293.54 L 613.71,295.73 L 611.31,298.63 L 609.22,296.60 L 603.79,299.63 L 603.79,302.86 L 602.88,304.62 L 590.40,315.79 L 587.22,317.13 L 586.58,315.39 L 584.47,313.92 L 585.91,310.35 L 584.14,310.73 L 584.61,309.00 L 583.92,307.74 L 582.06,307.25 L 582.99,304.68 L 576.35,301.39 L 572.79,302.81 L 570.72,302.55 L 564.88,300.01 L 561.65,296.91 L 561.12,292.67 L 561.73,289.56 L 559.21,285.50 L 563.12,283.14 L 565.08,279.22 L 567.00,278.18 L 566.17,276.90 L 568.78,274.87 L 568.78,272.80 L 570.80,272.25 L 570.72,270.45 L 568.38,269.91 L 567.08,268.50 L 568.38,266.65 L 571.10,266.08 L 571.73,263.86 L 564.06,258.42 L 562.43,251.12 L 560.27,249.61 L 557.95,251.25 L 554.89,249.86 L 557.36,245.18 L 556.83,241.79 L 552.78,240.76 L 553.99,237.13 L 551.62,235.19 L 549.51,236.10 L 549.85,234.83 L 547.70,231.07 L 546.92,232.11 L 543.18,232.91 L 543.36,231.15 L 541.89,229.59 L 542.22,227.88 L 541.91,226.87 L 541.11,227.53 L 540.60,225.03 L 541.19,221.34 L 539.95,219.56 L 540.85,213.30 L 544.42,209.03 L 543.35,205.06 L 544.43,202.23 L 554.17,205.29 L 561.09,204.15 L 562.54,204.93 L 566.83,203.11 L 567.96,204.55 L 574.36,206.06 L 586.90,211.03 L 592.48,211.93 L 612.03,218.78 L 617.49,219.34 L 635.34,224.69 L 648.32,225.91 L 650.90,223.81 L 650.17,222.46 L 651.00,223.34 L 653.08,222.35 L 651.95,220.79 L 650.14,221.99 L 649.38,222.04 L 652.37,220.22 L 652.45,220.71 L 653.45,221.48 L 655.01,220.84 L 655.11,222.11 L 656.01,221.74 L 656.63,222.61 L 658.70,221.37 L 659.50,222.39 L 659.25,223.79 L 662.54,224.32 L 662.27,225.08 L 663.09,225.95 L 665.89,226.80 L 667.12,225.51 L 668.16,227.43 L 673.05,229.13 L 676.31,228.34 L 680.51,230.81 L 683.07,229.82 L 684.79,230.41 L 685.34,229.76 L 685.45,230.43 L 690.01,229.77 L 689.83,231.10 L 691.15,231.95 Z" tabindex="0" role="button" aria-label="Şile"></path>
<path id="Silivri" class="district" data-district="Silivri" d="M 93.82,277.01 L 87.21,277.24 L 82.40,278.94 L 77.37,279.25 L 71.55,281.30 L 69.47,284.15 L 65.90,283.33 L 50.16,285.81 L 38.90,292.97 L 33.23,293.78 L 24.21,298.54 L 23.48,297.79 L 23.14,294.33 L 19.39,295.38 L 18.21,292.92 L 15.71,292.31 L 14.02,294.33 L 13.53,292.49 L 11.12,293.05 L 13.00,289.59 L 12.82,287.99 L 12.26,288.03 L 12.89,284.88 L 11.55,281.03 L 14.95,277.89 L 13.80,277.57 L 13.87,275.69 L 11.55,275.98 L 11.43,273.46 L 12.97,271.65 L 11.22,269.53 L 12.69,264.20 L 10.00,262.87 L 11.74,259.33 L 10.57,258.42 L 12.14,257.42 L 10.42,256.75 L 11.67,253.83 L 11.70,250.57 L 10.29,250.32 L 13.03,239.93 L 11.99,236.25 L 12.39,233.98 L 14.60,230.38 L 25.73,230.25 L 25.60,228.52 L 26.80,228.21 L 30.01,221.33 L 28.65,219.09 L 27.19,212.34 L 27.52,210.64 L 20.64,199.30 L 20.24,195.05 L 21.11,190.51 L 27.33,183.63 L 33.07,181.63 L 39.24,176.82 L 43.95,175.42 L 46.02,170.35 L 47.75,169.69 L 51.36,165.03 L 51.03,161.42 L 53.23,159.24 L 56.03,160.96 L 57.95,160.22 L 58.29,158.94 L 61.78,160.26 L 62.90,159.30 L 63.79,160.44 L 66.75,159.61 L 73.28,151.39 L 73.89,149.46 L 75.74,149.17 L 72.39,146.30 L 70.34,139.98 L 74.33,133.74 L 74.46,130.39 L 72.99,125.60 L 77.14,128.35 L 83.98,128.30 L 101.48,135.18 L 104.16,140.18 L 104.98,137.45 L 107.08,134.84 L 110.67,136.67 L 112.77,136.80 L 116.17,135.06 L 118.63,135.75 L 124.70,134.13 L 126.50,130.26 L 128.29,129.97 L 131.72,134.54 L 131.06,136.99 L 129.74,138.05 L 129.08,140.40 L 129.54,140.96 L 125.46,145.95 L 126.20,149.32 L 130.37,153.02 L 131.87,152.61 L 134.87,156.30 L 143.05,153.36 L 148.23,154.83 L 146.21,156.37 L 144.18,163.54 L 142.83,164.32 L 142.77,165.85 L 137.14,171.66 L 140.08,171.75 L 139.91,175.02 L 141.26,175.77 L 142.02,180.16 L 143.42,180.81 L 146.16,184.46 L 145.67,187.75 L 150.40,190.70 L 156.33,189.55 L 156.35,190.57 L 157.60,191.18 L 157.25,192.96 L 159.54,199.76 L 165.06,204.47 L 165.62,206.61 L 168.21,206.44 L 168.01,208.04 L 169.83,210.18 L 167.81,212.53 L 168.40,213.34 L 167.90,214.04 L 165.51,215.01 L 165.86,216.78 L 167.07,216.88 L 168.25,219.05 L 167.32,219.45 L 166.18,222.89 L 164.65,224.85 L 166.41,225.64 L 166.83,230.73 L 169.63,230.11 L 171.95,231.78 L 170.93,234.76 L 172.44,237.74 L 171.15,240.23 L 173.81,247.81 L 170.56,248.41 L 173.25,250.59 L 173.40,256.68 L 174.87,263.94 L 176.51,266.11 L 174.64,270.03 L 174.26,273.20 L 175.97,275.79 L 175.05,278.39 L 175.24,280.80 L 175.90,281.01 L 175.25,288.68 L 174.75,290.18 L 167.32,287.60 L 164.65,288.16 L 159.61,287.01 L 159.36,285.93 L 154.98,284.86 L 152.70,285.63 L 144.18,285.23 L 132.64,282.25 L 123.31,282.65 L 119.50,279.58 L 115.96,278.07 L 115.62,278.69 L 114.98,277.55 L 116.40,278.18 L 116.64,277.44 L 115.72,277.64 L 116.63,277.41 L 116.50,276.63 L 115.45,276.93 L 116.42,276.23 L 113.98,274.86 L 107.54,275.01 L 104.07,278.55 L 93.82,277.01 Z" tabindex="0" role="button" aria-label="Silivri"></path>
<path id="Büyükçekmece" class="district" data-district="Büyükçekmece" d="M 253.59,307.16 L 246.94,305.72 L 247.00,306.56 L 248.54,307.02 L 246.80,306.64 L 246.10,305.72 L 243.90,305.85 L 243.26,307.20 L 242.36,306.66 L 242.26,308.11 L 243.54,307.54 L 237.97,311.52 L 237.63,313.50 L 236.01,315.54 L 234.90,322.53 L 233.72,323.31 L 230.81,320.76 L 224.41,316.97 L 222.25,316.78 L 221.11,314.99 L 221.14,316.00 L 220.53,315.39 L 221.52,316.87 L 220.50,315.62 L 220.46,315.36 L 220.56,315.17 L 221.15,314.80 L 220.34,313.62 L 210.71,308.49 L 209.81,306.80 L 204.12,302.42 L 189.77,295.12 L 177.26,290.31 L 174.75,290.18 L 175.70,285.89 L 175.90,281.01 L 175.24,280.80 L 175.05,278.39 L 175.97,275.79 L 175.63,274.60 L 177.24,271.50 L 178.96,270.78 L 182.89,272.36 L 184.49,274.55 L 186.99,276.03 L 191.16,274.22 L 195.60,275.65 L 200.55,279.71 L 206.52,279.91 L 209.90,285.45 L 217.06,284.41 L 218.95,283.19 L 220.43,280.58 L 223.43,279.49 L 223.72,278.09 L 225.73,278.83 L 227.44,277.30 L 223.74,270.64 L 220.83,261.89 L 226.54,259.05 L 232.27,262.27 L 235.84,266.70 L 238.57,266.54 L 240.85,260.96 L 242.08,254.97 L 243.80,255.66 L 249.23,248.98 L 252.11,248.56 L 253.21,249.49 L 253.89,247.91 L 255.90,252.75 L 258.45,253.53 L 258.64,256.73 L 260.09,257.28 L 260.56,254.92 L 262.52,253.52 L 264.39,257.77 L 265.80,259.14 L 266.71,262.88 L 268.31,264.89 L 269.00,266.66 L 268.46,267.17 L 270.00,268.96 L 268.02,270.65 L 268.34,271.43 L 264.89,279.43 L 267.85,287.83 L 267.70,292.43 L 266.01,297.52 L 268.01,302.21 L 268.14,304.31 L 269.95,305.61 L 269.29,306.73 L 267.20,306.55 L 266.97,310.20 L 261.79,319.60 L 258.79,316.56 L 255.64,316.82 L 256.77,310.87 L 255.59,308.47 L 253.59,307.16 Z" tabindex="0" role="button" aria-label="Büyükçekmece"></path>
<path id="Çatalca" class="district" data-district="Çatalca" d="M 162.21,74.60 L 214.56,102.32 L 213.71,109.49 L 214.18,111.72 L 215.83,112.97 L 225.28,115.33 L 230.99,121.61 L 243.20,124.26 L 246.26,130.75 L 240.05,153.84 L 239.83,161.30 L 237.92,165.53 L 238.05,169.76 L 235.04,171.40 L 235.07,174.20 L 235.83,177.44 L 237.42,179.77 L 242.44,179.05 L 247.02,180.34 L 247.49,181.31 L 246.85,181.98 L 247.47,182.98 L 247.10,185.55 L 248.01,186.06 L 247.47,189.39 L 248.26,190.83 L 247.10,193.29 L 248.67,195.57 L 249.93,194.37 L 250.46,200.23 L 249.91,201.90 L 251.24,208.16 L 254.90,216.43 L 254.58,225.72 L 253.58,228.33 L 250.85,230.45 L 249.11,235.92 L 244.22,241.77 L 246.76,248.08 L 241.97,253.52 L 240.85,260.96 L 238.57,266.54 L 235.84,266.70 L 232.27,262.27 L 226.54,259.05 L 220.83,261.89 L 223.74,270.64 L 227.44,277.30 L 225.73,278.83 L 223.72,278.09 L 223.43,279.49 L 220.01,280.92 L 217.70,284.12 L 209.90,285.45 L 206.52,279.91 L 200.55,279.71 L 195.60,275.65 L 191.16,274.22 L 186.99,276.03 L 184.49,274.55 L 182.89,272.36 L 178.96,270.78 L 177.24,271.50 L 175.63,274.60 L 174.26,273.20 L 174.64,270.03 L 176.51,266.11 L 174.87,263.94 L 173.40,256.68 L 173.25,250.59 L 170.56,248.41 L 173.81,247.81 L 171.15,240.23 L 172.44,237.74 L 170.93,234.76 L 171.95,231.78 L 169.63,230.11 L 166.83,230.73 L 166.41,225.64 L 164.65,224.85 L 166.18,222.89 L 167.32,219.45 L 168.25,219.05 L 167.07,216.88 L 165.86,216.78 L 165.51,215.01 L 167.90,214.04 L 168.40,213.34 L 167.81,212.53 L 169.83,210.18 L 168.01,208.04 L 168.21,206.44 L 165.62,206.61 L 165.06,204.47 L 159.54,199.76 L 157.25,192.96 L 157.60,191.18 L 156.35,190.57 L 156.33,189.55 L 150.40,190.70 L 145.67,187.75 L 146.16,184.46 L 143.42,180.81 L 142.02,180.16 L 141.26,175.77 L 139.91,175.02 L 140.08,171.75 L 137.14,171.66 L 142.77,165.85 L 142.83,164.32 L 144.18,163.54 L 146.21,156.37 L 148.23,154.83 L 143.05,153.36 L 134.87,156.30 L 131.87,152.61 L 130.37,153.02 L 126.20,149.32 L 125.46,145.95 L 129.54,140.96 L 129.08,140.40 L 129.74,138.05 L 131.06,136.99 L 131.72,134.54 L 128.29,129.97 L 126.50,130.26 L 124.70,134.13 L 118.63,135.75 L 116.17,135.06 L 112.77,136.80 L 110.67,136.67 L 107.08,134.84 L 104.98,137.45 L 104.16,140.18 L 101.48,135.18 L 83.98,128.30 L 77.14,128.35 L 72.99,125.60 L 74.46,130.39 L 74.33,133.74 L 70.34,139.98 L 72.39,146.30 L 75.74,149.17 L 73.89,149.46 L 73.28,151.39 L 66.75,159.61 L 63.79,160.44 L 62.90,159.30 L 61.78,160.26 L 58.29,158.94 L 57.95,160.22 L 55.86,160.96 L 53.48,159.16 L 52.18,160.27 L 51.50,158.80 L 52.00,158.16 L 51.24,157.60 L 51.81,147.71 L 56.04,134.84 L 56.29,122.32 L 59.76,114.24 L 60.79,104.52 L 63.94,104.37 L 65.60,102.61 L 69.20,101.37 L 66.48,97.15 L 64.52,91.65 L 65.85,83.20 L 64.95,78.42 L 64.89,72.19 L 62.93,70.42 L 62.33,66.78 L 60.30,66.71 L 57.67,64.53 L 54.74,59.55 L 49.07,57.47 L 50.06,54.17 L 48.83,49.73 L 50.97,47.64 L 51.48,45.65 L 57.39,45.17 L 59.56,42.50 L 62.47,42.35 L 68.16,36.50 L 68.81,33.31 L 66.57,31.15 L 68.47,30.89 L 69.15,28.87 L 67.83,27.65 L 69.58,26.83 L 70.21,24.67 L 69.25,23.07 L 67.42,22.60 L 67.56,21.29 L 69.53,20.13 L 69.83,18.38 L 70.55,18.38 L 71.56,15.89 L 73.54,14.87 L 74.95,11.78 L 78.75,10.00 L 81.60,12.68 L 86.56,13.49 L 86.40,15.36 L 87.20,15.84 L 92.95,17.05 L 92.93,18.66 L 94.53,19.49 L 92.51,20.13 L 92.43,21.07 L 93.14,22.55 L 95.07,23.65 L 94.19,24.44 L 94.43,26.32 L 97.02,26.99 L 96.82,29.22 L 99.76,29.07 L 99.39,30.68 L 102.14,34.30 L 108.35,39.09 L 107.26,39.76 L 107.80,41.50 L 112.43,42.04 L 112.54,43.83 L 118.26,46.87 L 118.14,48.45 L 119.53,48.34 L 123.31,50.57 L 124.08,53.15 L 126.65,54.37 L 128.13,56.33 L 130.51,56.70 L 162.21,74.60 Z" tabindex="0" role="button" aria-label="Çatalca"></path>
<path id="Tuzla" class="district" data-district="Tuzla" d="M 518.87,411.77 L 520.03,409.15 L 522.08,408.83 L 523.73,405.28 L 522.91,403.07 L 520.56,403.03 L 518.86,401.89 L 517.59,400.20 L 518.64,401.30 L 519.68,400.59 L 518.01,399.32 L 518.60,398.81 L 517.04,398.78 L 519.02,393.72 L 520.23,393.96 L 520.40,393.21 L 520.05,395.92 L 518.90,397.56 L 520.34,400.17 L 523.17,401.93 L 523.79,401.17 L 524.70,401.75 L 523.93,401.01 L 525.49,398.91 L 525.09,397.97 L 526.10,396.66 L 527.52,397.21 L 528.24,396.14 L 526.68,391.23 L 526.85,389.69 L 528.23,390.65 L 529.62,389.63 L 530.95,386.33 L 533.21,386.32 L 534.04,387.73 L 537.64,386.37 L 536.45,383.86 L 536.39,380.84 L 534.25,379.57 L 537.40,378.50 L 542.64,372.51 L 543.12,369.47 L 542.12,367.47 L 543.19,366.62 L 542.65,362.77 L 545.35,361.30 L 545.74,360.22 L 546.83,353.71 L 546.06,351.23 L 553.54,349.13 L 560.26,345.43 L 561.59,342.29 L 563.98,342.37 L 564.90,340.66 L 566.98,340.06 L 567.05,338.97 L 567.45,339.73 L 569.33,339.16 L 570.94,333.79 L 573.58,336.10 L 576.20,331.17 L 578.11,329.43 L 589.15,328.08 L 592.14,325.69 L 593.08,330.54 L 591.91,336.31 L 593.04,340.18 L 591.35,342.66 L 586.75,344.60 L 586.93,346.34 L 585.64,347.64 L 586.70,348.82 L 586.23,349.76 L 587.63,350.26 L 587.56,356.95 L 588.33,358.92 L 590.71,359.49 L 591.58,358.56 L 593.01,359.82 L 593.01,361.03 L 587.50,367.17 L 577.25,368.60 L 576.33,378.40 L 572.35,378.00 L 563.13,382.02 L 560.82,383.90 L 559.62,386.24 L 558.10,386.82 L 556.96,389.18 L 558.41,390.49 L 555.88,393.99 L 559.65,399.85 L 556.86,405.46 L 556.36,410.81 L 550.74,407.08 L 547.40,414.06 L 541.52,410.05 L 541.16,409.99 L 541.31,410.95 L 540.66,411.80 L 540.85,410.73 L 540.39,411.28 L 539.79,410.37 L 539.79,411.65 L 539.55,410.53 L 538.81,410.69 L 539.73,412.50 L 538.63,412.46 L 537.93,411.24 L 537.39,412.52 L 538.71,412.93 L 535.23,413.69 L 532.59,411.54 L 529.92,411.09 L 529.04,412.27 L 530.66,413.52 L 522.79,412.22 L 518.01,413.65 L 517.81,414.71 L 516.63,415.04 L 518.14,414.67 L 517.39,417.02 L 514.85,418.22 L 515.45,415.47 L 513.85,412.03 L 515.37,412.03 L 517.53,409.82 L 518.47,409.80 L 516.74,411.05 L 517.61,411.83 L 518.87,411.77 Z" tabindex="0" role="button" aria-label="Tuzla"></path>
<path id="Pendik" class="district" data-district="Pendik" d="M 571.05,333.88 L 570.56,336.58 L 568.78,339.56 L 567.05,338.97 L 566.98,340.06 L 564.90,340.66 L 563.98,342.37 L 561.59,342.29 L 560.26,345.43 L 553.54,349.13 L 546.06,351.23 L 546.83,353.71 L 545.74,360.22 L 545.35,361.30 L 542.65,362.77 L 543.19,366.62 L 542.12,367.47 L 543.12,369.47 L 542.64,372.51 L 537.40,378.50 L 534.25,379.57 L 536.65,381.67 L 536.45,383.86 L 537.64,386.37 L 536.44,387.20 L 533.62,387.68 L 533.21,386.32 L 530.95,386.33 L 530.24,388.72 L 528.23,390.65 L 526.85,389.69 L 526.68,391.23 L 525.23,391.31 L 520.55,389.47 L 518.05,391.54 L 513.82,389.63 L 513.19,389.07 L 513.00,388.74 L 515.69,389.86 L 517.96,388.34 L 514.65,386.01 L 514.42,388.59 L 513.88,387.00 L 515.40,384.60 L 514.78,385.12 L 514.56,385.10 L 514.96,384.65 L 508.18,380.81 L 506.01,380.79 L 506.43,382.05 L 505.61,382.72 L 507.96,384.31 L 503.07,382.56 L 501.21,380.22 L 498.48,378.86 L 499.44,377.50 L 499.76,372.64 L 501.57,372.87 L 502.05,368.82 L 505.08,371.46 L 507.21,368.10 L 509.27,368.36 L 510.74,367.04 L 510.42,361.40 L 509.50,360.21 L 510.14,359.65 L 509.28,357.25 L 511.91,355.82 L 514.13,351.13 L 520.32,349.96 L 521.31,350.00 L 521.30,350.89 L 530.05,347.57 L 535.59,341.73 L 536.30,336.65 L 532.77,336.68 L 531.74,333.98 L 529.16,331.51 L 527.36,327.93 L 527.77,326.16 L 526.32,314.86 L 526.89,312.50 L 529.80,309.42 L 530.01,307.17 L 548.39,306.98 L 552.79,302.37 L 555.88,301.81 L 556.70,300.92 L 554.93,297.40 L 555.19,294.80 L 557.06,292.16 L 554.75,288.06 L 556.72,284.06 L 559.03,285.12 L 561.73,289.56 L 561.12,292.67 L 561.65,296.91 L 563.84,299.19 L 570.72,302.55 L 572.79,302.81 L 576.35,301.39 L 582.99,304.68 L 582.06,307.25 L 583.92,307.74 L 584.61,309.00 L 584.14,310.73 L 585.91,310.35 L 584.47,313.92 L 586.58,315.39 L 587.22,317.13 L 590.40,315.79 L 602.88,304.62 L 603.79,302.86 L 603.79,299.63 L 609.22,296.60 L 610.91,298.81 L 610.12,301.60 L 610.10,306.29 L 607.69,308.66 L 607.44,310.94 L 611.22,315.05 L 612.25,315.18 L 612.75,321.50 L 610.57,322.22 L 606.17,327.39 L 604.34,328.34 L 603.12,330.94 L 604.33,331.82 L 604.40,332.97 L 603.35,335.10 L 602.05,335.18 L 602.05,337.34 L 600.30,336.78 L 598.41,340.50 L 595.79,340.86 L 592.94,338.87 L 591.91,336.31 L 593.08,330.54 L 592.14,325.69 L 589.15,328.08 L 578.11,329.43 L 576.20,331.17 L 573.58,336.10 L 571.05,333.88 Z" tabindex="0" role="button" aria-label="Pendik"></path>
<path id="Sultanbeyli" class="district" data-district="Sultanbeyli" d="M 526.49,314.04 L 527.77,326.16 L 527.36,327.93 L 529.16,331.51 L 531.74,333.98 L 532.77,336.68 L 536.30,336.65 L 535.59,341.73 L 530.05,347.57 L 521.30,350.89 L 521.31,350.00 L 520.32,349.96 L 514.13,351.13 L 512.98,349.66 L 511.97,343.55 L 510.64,341.09 L 511.75,340.25 L 511.96,338.31 L 509.97,332.12 L 512.86,327.48 L 513.77,320.55 L 515.11,318.12 L 515.79,313.80 L 517.16,312.73 L 526.49,314.04 Z" tabindex="0" role="button" aria-label="Sultanbeyli"></path>
<path id="Kartal" class="district" data-district="Kartal" d="M 481.18,357.58 L 485.84,356.28 L 490.06,356.40 L 492.07,355.13 L 492.32,356.48 L 494.01,355.71 L 496.91,346.31 L 500.70,340.86 L 502.48,340.22 L 504.23,342.16 L 510.64,341.09 L 511.97,343.55 L 512.98,349.66 L 514.13,351.13 L 511.91,355.82 L 509.28,357.25 L 510.14,359.65 L 509.50,360.21 L 510.42,361.40 L 510.74,367.04 L 509.27,368.36 L 507.21,368.10 L 505.08,371.46 L 502.05,368.82 L 501.57,372.87 L 499.76,372.64 L 499.44,377.50 L 498.48,378.86 L 493.86,376.18 L 491.66,376.12 L 487.83,374.24 L 484.32,374.92 L 478.15,369.33 L 473.48,366.65 L 470.49,366.59 L 468.18,363.97 L 468.80,363.37 L 468.60,361.49 L 469.88,360.42 L 471.79,360.09 L 473.20,362.40 L 481.18,357.58 Z" tabindex="0" role="button" aria-label="Kartal"></path>
<path id="Sancaktepe" class="district" data-district="Sancaktepe" d="M 497.76,329.14 L 497.23,327.85 L 494.48,329.02 L 494.81,328.23 L 493.43,327.70 L 492.18,328.67 L 491.64,325.03 L 493.79,324.05 L 489.52,321.03 L 489.57,319.20 L 488.94,319.14 L 489.64,316.99 L 488.22,312.14 L 486.67,310.66 L 490.33,309.31 L 488.82,308.05 L 494.48,308.51 L 497.75,306.97 L 506.27,306.45 L 507.61,303.85 L 510.48,303.90 L 510.53,302.42 L 511.69,302.98 L 512.63,302.04 L 512.11,300.66 L 515.67,300.79 L 518.15,299.72 L 520.99,295.88 L 521.67,293.18 L 524.41,291.85 L 525.72,288.92 L 527.86,287.75 L 531.71,290.31 L 532.67,289.43 L 536.42,289.89 L 540.35,288.74 L 543.39,289.96 L 549.97,290.25 L 550.30,293.81 L 551.53,293.42 L 555.19,294.80 L 554.93,297.40 L 556.70,300.92 L 552.79,302.37 L 548.39,306.98 L 530.01,307.17 L 529.80,309.42 L 527.27,311.92 L 526.49,314.04 L 516.44,312.92 L 513.82,320.32 L 512.82,327.60 L 510.06,331.37 L 511.96,338.31 L 511.75,340.25 L 510.64,341.09 L 504.23,342.16 L 502.48,340.22 L 500.70,340.86 L 498.82,343.43 L 498.13,339.73 L 495.15,335.66 L 497.76,329.14 Z" tabindex="0" role="button" aria-label="Sancaktepe"></path>
<path id="Çekmeköy" class="district" data-district="Çekmeköy" d="M 570.61,266.32 L 568.38,266.65 L 567.08,268.50 L 568.38,269.91 L 570.72,270.45 L 570.80,272.25 L 568.78,272.80 L 568.95,274.57 L 566.17,276.90 L 567.00,278.18 L 565.08,279.22 L 563.96,282.13 L 560.88,285.17 L 559.21,285.50 L 556.72,284.06 L 555.82,284.88 L 554.75,288.06 L 557.06,292.16 L 555.19,294.80 L 551.53,293.42 L 550.30,293.81 L 549.97,290.25 L 543.39,289.96 L 540.35,288.74 L 536.42,289.89 L 532.67,289.43 L 531.71,290.31 L 527.86,287.75 L 525.72,288.92 L 524.41,291.85 L 521.67,293.18 L 520.77,296.30 L 517.73,300.05 L 512.11,300.66 L 512.63,302.04 L 511.69,302.98 L 510.53,302.42 L 510.48,303.90 L 507.61,303.85 L 506.27,306.45 L 497.75,306.97 L 494.19,308.51 L 486.16,307.54 L 480.84,299.36 L 474.40,296.11 L 471.37,296.09 L 469.01,297.40 L 468.02,294.14 L 469.34,292.75 L 469.65,290.50 L 474.58,289.47 L 479.63,287.08 L 480.00,285.98 L 480.98,287.02 L 489.02,286.61 L 491.22,287.32 L 493.16,285.97 L 495.51,285.80 L 496.30,284.59 L 494.31,281.40 L 493.21,276.99 L 495.66,269.30 L 495.46,268.05 L 497.59,267.87 L 497.67,266.99 L 498.83,266.97 L 501.21,264.78 L 501.04,260.81 L 504.13,259.48 L 505.06,257.89 L 505.72,257.76 L 505.88,260.48 L 507.36,261.89 L 509.08,260.86 L 509.91,261.82 L 511.74,260.22 L 511.64,257.34 L 513.20,256.87 L 512.70,255.52 L 513.17,254.73 L 514.70,254.78 L 515.87,253.30 L 517.06,254.63 L 522.14,251.74 L 524.20,252.33 L 524.64,249.68 L 525.83,248.28 L 525.87,246.11 L 532.85,249.54 L 536.42,249.69 L 539.42,247.53 L 542.61,249.59 L 549.91,247.64 L 551.63,248.02 L 551.27,249.23 L 552.35,250.05 L 555.92,249.85 L 557.95,251.25 L 560.27,249.61 L 563.13,252.10 L 564.06,258.42 L 566.70,259.87 L 567.64,261.56 L 571.48,263.09 L 571.74,264.98 L 570.61,266.32 Z" tabindex="0" role="button" aria-label="Çekmeköy"></path>
<path id="Maltepe" class="district" data-district="Maltepe" d="M 459.37,335.81 L 463.80,329.35 L 467.85,328.78 L 472.62,329.65 L 474.31,328.74 L 475.72,326.17 L 477.61,325.31 L 481.27,326.64 L 481.99,327.74 L 483.72,327.17 L 484.40,328.57 L 491.64,325.03 L 492.18,328.67 L 493.43,327.70 L 494.81,328.23 L 494.48,329.02 L 497.23,327.85 L 497.93,328.74 L 495.15,335.66 L 498.13,339.73 L 498.82,343.43 L 496.09,348.06 L 494.01,355.71 L 492.32,356.48 L 492.07,355.13 L 490.06,356.40 L 481.35,357.42 L 473.20,362.40 L 471.79,360.09 L 469.98,360.38 L 468.60,361.49 L 468.80,363.37 L 468.18,363.97 L 465.71,361.14 L 464.12,357.53 L 462.03,357.57 L 460.72,355.74 L 462.06,354.78 L 460.70,355.69 L 458.52,352.42 L 459.57,350.05 L 458.03,351.74 L 458.35,350.98 L 455.77,347.07 L 455.99,345.22 L 454.37,344.50 L 453.91,346.98 L 454.26,344.35 L 451.11,340.32 L 453.60,338.09 L 459.37,335.81 Z" tabindex="0" role="button" aria-label="Maltepe"></path>
<path id="Kadıköy" class="district" data-district="Kadıköy" d="M 424.91,313.81 L 424.85,312.82 L 428.47,308.85 L 430.83,310.20 L 432.40,309.97 L 432.41,314.46 L 446.99,321.33 L 450.24,323.83 L 454.66,332.61 L 457.59,336.61 L 449.42,340.66 L 451.05,341.23 L 450.98,341.38 L 448.77,340.53 L 448.10,338.96 L 445.91,339.62 L 442.30,337.38 L 440.69,334.74 L 438.40,335.08 L 436.55,334.51 L 433.03,331.34 L 431.72,331.15 L 430.31,333.22 L 428.62,331.52 L 426.54,332.62 L 427.12,328.91 L 427.21,330.40 L 428.25,331.15 L 428.92,330.43 L 428.44,328.68 L 427.72,328.92 L 427.51,327.55 L 428.09,328.73 L 429.45,328.11 L 428.79,327.84 L 429.11,326.89 L 428.05,327.30 L 428.84,326.35 L 427.11,324.55 L 422.61,326.60 L 421.68,325.11 L 421.81,322.96 L 419.71,319.16 L 421.88,319.92 L 423.34,318.61 L 422.76,317.37 L 420.77,317.29 L 421.37,316.82 L 420.07,315.15 L 420.81,314.60 L 422.32,316.10 L 424.91,313.81 Z" tabindex="0" role="button" aria-label="Kadıköy"></path>
<path id="Ataşehir" class="district" data-district="Ataşehir" d="M 463.45,329.46 L 458.84,336.19 L 457.11,336.09 L 450.24,323.83 L 442.66,319.21 L 442.39,312.36 L 449.39,310.37 L 452.17,311.60 L 458.69,317.17 L 466.96,316.82 L 478.86,318.35 L 489.07,320.74 L 493.79,324.05 L 484.40,328.57 L 483.72,327.17 L 481.99,327.74 L 481.27,326.64 L 477.61,325.31 L 475.72,326.17 L 474.31,328.74 L 472.62,329.65 L 467.85,328.78 L 463.45,329.46 Z" tabindex="0" role="button" aria-label="Ataşehir"></path>
<path id="Üsküdar" class="district" data-district="Üsküdar" d="M 444.39,280.76 L 447.43,283.11 L 446.56,285.90 L 448.71,287.90 L 449.89,294.19 L 448.02,298.70 L 445.44,299.91 L 447.10,302.38 L 446.56,304.25 L 449.00,310.33 L 442.39,312.36 L 442.66,319.21 L 432.41,314.46 L 432.40,309.97 L 430.83,310.20 L 428.47,308.85 L 422.45,316.04 L 420.81,314.60 L 418.42,314.80 L 417.95,313.88 L 419.14,313.95 L 418.77,312.95 L 417.17,312.74 L 416.50,311.46 L 417.95,311.50 L 416.79,310.31 L 416.58,309.56 L 417.74,310.46 L 417.38,309.58 L 418.21,308.84 L 417.82,308.49 L 417.59,308.03 L 418.26,308.49 L 416.36,303.61 L 417.62,301.73 L 419.06,301.65 L 426.22,295.30 L 434.30,290.15 L 434.47,283.18 L 436.25,280.61 L 435.80,276.55 L 439.11,274.63 L 442.04,276.87 L 444.39,280.76 Z" tabindex="0" role="button" aria-label="Üsküdar"></path>
<path id="Ümraniye" class="district" data-district="Ümraniye" d="M 446.52,302.70 L 447.10,302.38 L 445.44,299.91 L 448.02,298.70 L 449.89,294.19 L 448.71,287.90 L 446.56,285.90 L 447.45,283.82 L 446.71,282.01 L 450.24,281.14 L 452.35,281.75 L 451.45,281.99 L 451.75,283.34 L 456.37,283.38 L 463.08,289.23 L 466.43,287.54 L 466.62,289.83 L 468.18,291.81 L 468.55,297.03 L 471.92,296.02 L 477.54,297.19 L 481.00,299.50 L 485.92,307.37 L 490.04,308.33 L 490.33,309.31 L 486.67,310.66 L 488.22,312.14 L 489.69,317.26 L 488.94,319.14 L 489.57,319.20 L 489.82,320.67 L 467.83,316.89 L 458.69,317.17 L 452.17,311.60 L 449.00,310.33 L 446.52,302.70 Z" tabindex="0" role="button" aria-label="Ümraniye"></path>
<path id="Beykoz" class="district" data-district="Beykoz" d="M 445.87,259.38 L 448.35,255.24 L 451.63,253.84 L 452.29,251.11 L 449.76,245.14 L 445.43,243.86 L 444.58,242.78 L 446.66,241.99 L 444.89,242.42 L 441.83,240.57 L 444.48,234.65 L 442.32,231.16 L 442.74,229.38 L 447.92,226.54 L 448.59,224.95 L 448.04,222.09 L 453.84,220.48 L 455.77,220.96 L 456.59,219.28 L 458.09,219.80 L 458.12,218.94 L 460.46,217.29 L 461.06,212.63 L 460.24,210.76 L 465.34,209.27 L 465.55,207.91 L 464.82,207.05 L 464.03,208.54 L 463.12,208.39 L 464.95,206.52 L 466.91,206.24 L 469.50,204.13 L 472.74,204.11 L 473.65,203.22 L 473.07,201.48 L 474.37,200.68 L 477.50,201.79 L 478.85,198.15 L 481.56,198.16 L 482.91,199.67 L 491.46,200.31 L 492.69,199.48 L 492.45,198.36 L 494.05,199.71 L 497.97,198.66 L 499.03,197.34 L 497.87,195.26 L 498.33,194.57 L 499.73,194.55 L 500.07,195.81 L 501.82,194.95 L 503.76,196.22 L 505.81,195.19 L 508.66,196.36 L 510.33,194.23 L 514.54,192.47 L 515.00,194.94 L 518.11,194.62 L 518.98,196.29 L 520.18,195.46 L 527.73,199.12 L 535.55,200.05 L 539.13,202.23 L 542.40,202.01 L 543.89,202.92 L 544.43,202.23 L 543.35,205.06 L 544.42,209.03 L 540.85,213.30 L 540.27,215.95 L 540.83,216.40 L 539.95,219.56 L 541.19,221.34 L 540.60,223.22 L 541.11,227.53 L 541.91,226.87 L 541.89,229.59 L 543.03,230.20 L 543.18,232.91 L 546.92,232.11 L 547.70,231.07 L 549.85,234.83 L 549.51,236.10 L 551.62,235.19 L 552.83,235.82 L 553.99,237.13 L 552.78,240.76 L 556.68,241.52 L 557.36,244.50 L 555.56,249.16 L 552.35,250.05 L 551.27,249.23 L 551.63,248.02 L 549.91,247.64 L 542.61,249.59 L 539.42,247.53 L 536.42,249.69 L 532.85,249.54 L 525.55,246.28 L 525.83,248.28 L 524.64,249.68 L 524.20,252.33 L 522.14,251.74 L 517.06,254.63 L 515.87,253.30 L 514.70,254.78 L 513.17,254.73 L 512.70,255.52 L 513.20,256.87 L 511.64,257.34 L 511.74,260.22 L 509.91,261.82 L 509.08,260.86 L 507.36,261.89 L 505.88,260.48 L 505.72,257.76 L 505.06,257.89 L 504.13,259.48 L 501.04,260.81 L 501.21,264.78 L 498.83,266.97 L 497.67,266.99 L 497.59,267.87 L 495.46,268.05 L 495.66,269.30 L 493.21,276.99 L 494.31,281.40 L 496.30,284.59 L 495.51,285.80 L 493.16,285.97 L 491.22,287.32 L 489.02,286.61 L 480.98,287.02 L 480.00,285.98 L 479.63,287.08 L 474.58,289.47 L 469.65,290.50 L 469.34,292.75 L 468.18,293.68 L 468.18,291.81 L 466.62,289.83 L 466.43,287.54 L 463.08,289.23 L 456.37,283.38 L 451.75,283.34 L 451.45,281.99 L 452.35,281.75 L 450.24,281.14 L 446.71,282.01 L 445.13,281.34 L 442.04,276.87 L 439.11,274.63 L 440.16,270.86 L 439.64,266.73 L 440.37,266.01 L 439.17,264.29 L 439.87,261.66 L 442.66,259.43 L 445.87,259.38 Z" tabindex="0" role="button" aria-label="Beykoz"></path>
<path id="Beyoğlu" class="district" data-district="Beyoğlu" d="M 395.65,296.64 L 390.93,291.53 L 389.94,289.53 L 390.43,287.86 L 393.35,286.30 L 393.46,281.45 L 394.78,281.26 L 394.09,282.62 L 396.15,284.52 L 396.43,287.26 L 398.90,287.36 L 401.31,290.39 L 401.37,291.50 L 404.38,291.41 L 406.72,293.73 L 411.19,294.82 L 412.23,296.09 L 411.42,297.01 L 411.68,298.26 L 410.79,298.26 L 409.36,300.58 L 404.80,303.87 L 403.21,303.95 L 400.99,302.28 L 400.41,299.03 L 398.52,297.59 L 395.20,297.07 L 395.65,296.64 Z" tabindex="0" role="button" aria-label="Beyoğlu"></path>
<path id="Beşiktaş" class="district" data-district="Beşiktaş" d="M 414.83,288.59 L 413.38,286.30 L 414.33,285.11 L 415.14,280.44 L 416.72,280.67 L 418.49,282.44 L 420.14,277.78 L 416.74,270.40 L 416.00,266.41 L 419.56,259.62 L 421.14,262.31 L 422.96,263.56 L 426.86,263.52 L 425.00,265.52 L 423.03,266.12 L 430.37,267.95 L 430.33,271.04 L 435.53,271.49 L 435.39,272.95 L 431.33,274.71 L 432.13,279.79 L 430.49,280.55 L 428.25,284.28 L 426.77,289.33 L 412.23,296.09 L 411.19,294.82 L 411.18,293.45 L 412.59,294.05 L 412.06,292.54 L 412.73,292.25 L 412.64,290.53 L 413.25,289.23 L 414.19,289.62 L 414.83,288.59 Z" tabindex="0" role="button" aria-label="Beşiktaş"></path>
<path id="Kağıthane" class="district" data-district="Kağıthane" d="M 407.89,261.61 L 408.20,263.68 L 413.56,262.52 L 415.46,263.65 L 415.63,266.88 L 417.15,271.09 L 415.79,271.33 L 416.89,273.97 L 416.70,275.60 L 414.24,276.26 L 409.67,274.48 L 409.33,277.57 L 407.10,279.20 L 405.91,278.33 L 402.01,281.77 L 398.71,287.52 L 396.43,287.26 L 396.15,284.52 L 394.02,282.15 L 396.61,279.32 L 396.95,276.66 L 399.60,273.35 L 399.75,270.67 L 401.29,270.12 L 401.33,268.06 L 397.72,263.75 L 395.86,262.77 L 395.77,260.56 L 400.34,258.79 L 401.40,259.35 L 400.65,261.40 L 404.04,261.46 L 404.48,260.52 L 405.21,261.49 L 406.89,260.53 L 407.89,261.61 Z" tabindex="0" role="button" aria-label="Kağıthane"></path>
<path id="Sarıyer" class="district" data-district="Sarıyer" d="M 394.03,178.46 L 396.07,178.41 L 401.40,182.74 L 406.96,183.60 L 414.33,186.31 L 421.67,187.33 L 426.96,186.77 L 427.10,185.09 L 429.03,183.81 L 428.84,181.42 L 430.31,181.46 L 431.24,182.93 L 433.33,181.15 L 435.18,182.32 L 437.72,182.18 L 439.23,184.47 L 440.37,182.97 L 440.37,183.64 L 442.23,183.95 L 441.77,185.50 L 442.29,185.92 L 444.50,182.44 L 445.38,183.93 L 445.18,185.43 L 447.08,184.86 L 446.53,185.20 L 447.14,187.12 L 449.30,185.97 L 449.85,188.12 L 450.53,187.22 L 452.10,188.12 L 452.25,189.94 L 453.29,188.97 L 454.30,189.31 L 455.32,189.97 L 455.14,190.69 L 455.91,190.21 L 455.57,191.50 L 457.93,191.20 L 456.70,192.46 L 459.52,193.19 L 458.98,195.90 L 458.60,194.29 L 459.15,193.46 L 458.38,193.13 L 457.86,194.53 L 458.63,195.45 L 456.32,198.25 L 456.96,198.96 L 455.65,199.89 L 455.81,202.12 L 457.78,203.52 L 456.87,203.80 L 457.42,204.17 L 455.25,207.57 L 453.21,207.74 L 452.30,209.41 L 449.78,210.72 L 445.91,217.39 L 444.18,218.41 L 443.01,221.51 L 442.88,220.89 L 442.43,223.94 L 437.62,226.23 L 436.28,228.78 L 428.17,233.48 L 428.34,234.58 L 431.35,237.18 L 434.46,238.59 L 436.65,242.40 L 435.18,242.96 L 437.87,244.46 L 439.11,247.17 L 441.39,248.74 L 442.04,250.29 L 441.50,252.55 L 438.13,256.24 L 436.33,255.29 L 435.22,255.90 L 436.54,256.05 L 437.19,258.23 L 434.64,264.29 L 435.29,264.17 L 435.09,265.78 L 436.35,267.90 L 435.89,272.64 L 435.34,272.89 L 435.31,271.38 L 430.33,271.04 L 430.37,267.95 L 423.03,266.12 L 425.00,265.52 L 426.86,263.52 L 422.96,263.56 L 421.14,262.31 L 419.56,259.62 L 416.19,265.39 L 416.18,268.22 L 415.54,263.82 L 414.60,262.78 L 408.74,263.79 L 406.89,260.53 L 405.21,261.49 L 404.48,260.52 L 404.04,261.46 L 400.65,261.40 L 401.40,259.35 L 397.60,256.13 L 399.13,254.00 L 397.79,250.51 L 398.21,248.45 L 400.16,246.43 L 399.46,245.25 L 400.90,244.18 L 404.56,237.96 L 404.37,235.21 L 402.65,233.10 L 397.91,233.51 L 397.01,232.82 L 397.33,231.56 L 395.04,231.54 L 395.84,214.23 L 394.51,213.52 L 393.38,209.13 L 395.59,203.27 L 395.76,200.85 L 395.53,200.06 L 391.01,199.70 L 389.65,198.68 L 389.19,199.27 L 389.15,197.69 L 388.33,197.88 L 388.43,195.47 L 387.46,194.58 L 390.61,185.65 L 390.44,184.20 L 391.60,181.52 L 393.65,180.23 L 394.03,178.46 Z" tabindex="0" role="button" aria-label="Sarıyer"></path>
<path id="Şişli" class="district" data-district="Şişli" d="M 399.21,286.46 L 402.01,281.77 L 405.91,278.33 L 407.10,279.20 L 409.48,277.42 L 409.67,274.48 L 414.24,276.26 L 416.65,275.67 L 416.89,273.97 L 415.79,271.33 L 417.15,271.09 L 420.19,277.38 L 418.49,282.44 L 416.72,280.67 L 415.14,280.44 L 414.33,285.11 L 413.38,286.30 L 414.75,288.92 L 413.19,289.29 L 412.35,291.31 L 412.73,292.25 L 412.06,292.54 L 412.59,294.05 L 411.18,293.45 L 411.19,294.82 L 406.72,293.73 L 404.38,291.41 L 401.37,291.50 L 401.31,290.39 L 399.12,288.49 L 399.21,286.46 Z" tabindex="0" role="button" aria-label="Şişli"></path>
<path id="Arnavutköy" class="district" data-district="Arnavutköy" d="M 283.62,259.53 L 279.35,263.75 L 273.74,261.22 L 271.96,264.08 L 272.24,265.17 L 270.80,265.69 L 270.00,268.96 L 268.46,267.17 L 269.00,266.66 L 268.31,264.89 L 266.71,262.88 L 265.80,259.14 L 264.39,257.77 L 262.52,253.52 L 260.56,254.92 L 260.09,257.28 L 258.64,256.73 L 258.45,253.53 L 255.90,252.75 L 253.89,247.91 L 253.21,249.49 L 252.11,248.56 L 249.23,248.98 L 243.80,255.66 L 242.08,254.97 L 242.39,252.58 L 246.76,248.08 L 244.22,241.77 L 249.11,235.92 L 251.30,229.68 L 253.58,228.33 L 254.58,225.72 L 255.00,218.60 L 254.76,215.75 L 251.24,208.16 L 249.91,201.90 L 250.46,200.23 L 249.93,194.37 L 248.67,195.57 L 247.10,193.29 L 248.26,190.83 L 247.47,189.39 L 248.12,186.72 L 247.10,185.55 L 247.24,180.65 L 241.53,178.96 L 237.42,179.77 L 235.83,177.44 L 235.07,174.20 L 235.04,171.40 L 238.05,169.76 L 237.92,165.53 L 239.83,161.30 L 240.05,153.84 L 246.26,130.75 L 243.20,124.26 L 230.99,121.61 L 225.28,115.33 L 215.83,112.97 L 214.18,111.72 L 214.08,103.97 L 214.89,102.56 L 232.66,111.83 L 240.19,114.09 L 248.04,119.98 L 268.90,131.18 L 274.22,133.03 L 278.94,133.03 L 285.74,136.37 L 287.27,136.07 L 288.05,133.87 L 289.58,133.51 L 291.33,135.17 L 290.92,136.23 L 290.68,135.27 L 289.75,135.44 L 290.70,137.13 L 303.64,143.69 L 308.12,145.24 L 309.87,144.43 L 314.88,144.82 L 317.10,143.83 L 320.74,146.68 L 323.41,145.95 L 325.25,149.61 L 329.58,152.14 L 327.77,152.48 L 328.20,154.38 L 331.12,154.97 L 330.86,151.35 L 331.57,152.66 L 331.22,155.20 L 329.79,157.57 L 328.00,169.36 L 326.51,171.20 L 326.05,174.29 L 323.58,174.71 L 325.47,180.44 L 327.14,180.75 L 330.49,186.08 L 330.13,188.25 L 330.95,191.64 L 334.35,195.73 L 333.99,198.85 L 338.83,200.46 L 341.32,205.00 L 343.51,207.16 L 342.91,209.35 L 341.65,210.36 L 342.87,212.66 L 342.37,217.80 L 343.77,220.03 L 343.13,223.76 L 340.74,224.20 L 340.76,229.75 L 341.74,231.93 L 341.14,234.75 L 341.77,235.49 L 342.13,240.68 L 341.30,241.60 L 341.32,244.15 L 338.28,243.33 L 331.59,237.90 L 327.82,237.69 L 324.00,242.65 L 321.65,243.56 L 318.75,246.63 L 315.54,246.70 L 314.09,245.49 L 311.70,246.23 L 310.16,244.11 L 309.25,249.87 L 306.75,255.60 L 304.62,256.92 L 302.66,256.96 L 291.90,249.85 L 288.94,251.46 L 285.83,256.06 L 285.77,256.93 L 287.47,257.75 L 283.62,259.53 Z" tabindex="0" role="button" aria-label="Arnavutköy"></path>
<path id="Avcılar" class="district" data-district="Avcılar" d="M 311.90,288.58 L 311.71,292.01 L 318.07,325.61 L 316.69,325.85 L 313.54,328.46 L 312.44,330.66 L 311.02,331.00 L 307.18,330.11 L 305.12,331.41 L 301.86,330.16 L 303.15,331.29 L 300.87,329.52 L 295.91,328.97 L 296.11,326.12 L 294.01,322.67 L 291.32,320.49 L 289.96,315.80 L 289.93,314.65 L 291.32,314.10 L 292.99,315.36 L 295.44,315.23 L 295.76,312.28 L 296.83,310.36 L 294.81,308.78 L 296.18,307.18 L 296.83,300.26 L 292.56,298.70 L 292.40,296.32 L 294.97,293.56 L 292.42,292.80 L 292.06,290.53 L 289.14,286.57 L 296.51,283.99 L 295.82,281.61 L 296.11,277.82 L 293.68,272.39 L 292.55,267.12 L 293.14,262.87 L 291.89,259.92 L 295.22,262.49 L 298.52,268.14 L 298.37,269.37 L 306.34,277.95 L 307.53,280.43 L 309.00,281.29 L 308.64,281.81 L 310.20,282.82 L 312.91,282.07 L 313.50,282.88 L 313.86,284.42 L 311.90,288.58 Z" tabindex="0" role="button" aria-label="Avcılar"></path>
<path id="Bahçelievler" class="district" data-district="Bahçelievler" d="M 338.65,300.69 L 344.33,304.95 L 350.27,302.92 L 352.76,304.10 L 354.02,302.62 L 354.38,304.09 L 358.30,304.70 L 363.08,312.01 L 364.67,311.04 L 367.08,306.65 L 367.35,312.02 L 368.67,314.53 L 356.53,319.37 L 343.72,318.86 L 343.27,317.87 L 341.72,317.60 L 339.96,314.97 L 338.59,307.42 L 337.76,307.16 L 338.65,300.69 Z" tabindex="0" role="button" aria-label="Bahçelievler"></path>
<path id="Bakırköy" class="district" data-district="Bakırköy" d="M 350.80,337.01 L 347.14,338.93 L 345.38,337.62 L 344.25,337.72 L 344.05,338.63 L 345.30,338.63 L 344.61,339.00 L 339.56,338.23 L 332.96,331.97 L 325.59,327.31 L 325.83,324.41 L 324.93,322.29 L 328.85,322.85 L 332.36,320.92 L 335.63,323.48 L 336.16,323.08 L 335.73,320.54 L 335.13,320.60 L 334.19,317.16 L 336.58,315.00 L 339.44,315.50 L 343.17,318.79 L 354.57,319.63 L 370.88,313.60 L 373.03,311.78 L 371.42,315.37 L 372.34,317.55 L 370.62,324.34 L 371.05,325.77 L 371.06,326.81 L 370.42,325.86 L 365.52,328.73 L 366.17,329.70 L 364.03,330.84 L 364.56,331.35 L 366.64,329.68 L 364.74,331.58 L 361.19,328.99 L 355.69,328.64 L 354.70,329.81 L 355.74,330.87 L 354.63,329.90 L 355.54,331.16 L 354.50,330.08 L 353.70,330.56 L 353.05,332.07 L 353.51,332.56 L 350.80,337.01 Z" tabindex="0" role="button" aria-label="Bakırköy"></path>
<path id="Bayrampaşa" class="district" data-district="Bayrampaşa" d="M 369.13,285.90 L 368.61,282.78 L 366.15,278.19 L 366.26,274.94 L 372.41,279.08 L 378.33,286.31 L 381.89,293.16 L 380.75,292.82 L 381.10,294.87 L 384.11,300.37 L 382.45,301.79 L 379.30,298.31 L 374.25,300.80 L 372.70,296.80 L 370.26,295.53 L 368.71,292.55 L 369.13,285.90 Z" tabindex="0" role="button" aria-label="Bayrampaşa"></path>
<path id="Bağcılar" class="district" data-district="Bağcılar" d="M 341.18,278.10 L 347.13,278.69 L 352.46,281.34 L 356.45,277.61 L 359.02,278.01 L 357.46,280.32 L 356.85,286.93 L 357.60,287.05 L 358.85,289.91 L 358.66,292.98 L 359.35,294.26 L 363.32,295.21 L 363.86,300.69 L 360.13,299.71 L 358.56,300.28 L 360.14,305.33 L 358.97,306.11 L 358.30,304.70 L 354.38,304.09 L 354.02,302.62 L 352.76,304.10 L 350.27,302.92 L 344.33,304.95 L 340.85,302.54 L 339.67,301.09 L 339.57,295.65 L 338.49,291.01 L 341.18,278.10 Z" tabindex="0" role="button" aria-label="Bağcılar"></path>
<path id="Başakşehir" class="district" data-district="Başakşehir" d="M 294.16,261.53 L 291.89,259.92 L 293.14,262.87 L 292.55,267.12 L 293.68,272.39 L 296.11,277.82 L 295.82,281.61 L 296.51,283.99 L 292.78,285.11 L 290.58,283.23 L 285.33,281.58 L 278.48,275.52 L 277.05,270.30 L 274.29,265.61 L 272.37,264.08 L 273.74,261.22 L 274.75,262.32 L 279.99,263.46 L 283.62,259.53 L 287.47,257.75 L 285.77,256.93 L 285.83,256.06 L 288.94,251.46 L 291.90,249.85 L 302.66,256.96 L 304.62,256.92 L 306.75,255.60 L 309.25,249.87 L 310.16,244.11 L 311.70,246.23 L 314.09,245.49 L 315.54,246.70 L 318.75,246.63 L 321.65,243.56 L 324.00,242.65 L 328.42,237.53 L 331.59,237.90 L 339.64,244.12 L 345.14,244.58 L 344.98,245.63 L 346.41,247.51 L 353.12,253.15 L 353.05,256.37 L 354.98,259.06 L 355.22,261.88 L 352.29,271.78 L 348.62,279.35 L 341.40,277.59 L 339.91,283.29 L 331.81,281.82 L 317.13,283.46 L 312.91,282.07 L 310.20,282.82 L 308.64,281.81 L 309.00,281.29 L 307.53,280.43 L 306.34,277.95 L 298.37,269.37 L 298.20,267.48 L 294.16,261.53 Z" tabindex="0" role="button" aria-label="Başakşehir"></path>
<path id="Beylikdüzü" class="district" data-district="Beylikdüzü" d="M 261.79,319.60 L 266.97,310.20 L 267.20,306.55 L 269.29,306.73 L 269.95,305.61 L 281.98,311.68 L 290.57,313.28 L 291.32,314.10 L 289.93,314.65 L 289.96,315.80 L 291.22,320.26 L 294.01,322.67 L 296.11,326.12 L 295.95,329.36 L 294.84,329.21 L 294.21,330.46 L 294.13,329.74 L 292.50,329.88 L 290.10,331.57 L 290.02,334.65 L 289.70,332.59 L 288.99,332.64 L 288.99,334.62 L 288.83,332.70 L 288.23,332.76 L 288.19,334.41 L 287.68,332.02 L 287.61,334.68 L 287.38,333.06 L 286.72,333.04 L 286.90,335.46 L 286.62,333.63 L 286.02,333.77 L 286.11,335.41 L 285.34,335.45 L 285.25,334.05 L 284.64,334.17 L 284.65,335.48 L 284.52,334.24 L 283.94,334.47 L 283.98,336.38 L 285.05,337.62 L 283.09,337.24 L 283.05,335.74 L 281.68,335.70 L 279.43,335.20 L 281.76,335.60 L 282.30,334.75 L 279.59,334.25 L 278.05,334.53 L 279.42,335.85 L 277.29,334.68 L 265.63,335.78 L 259.36,333.36 L 257.58,333.98 L 256.10,332.69 L 255.74,333.27 L 256.94,334.00 L 255.40,333.95 L 257.62,334.63 L 255.34,334.12 L 255.24,333.76 L 256.13,332.10 L 255.76,331.56 L 255.80,331.07 L 256.48,331.53 L 254.80,329.06 L 256.45,325.36 L 255.32,321.46 L 255.64,316.82 L 258.79,316.56 L 261.79,319.60 Z" tabindex="0" role="button" aria-label="Beylikdüzü"></path>
<path id="Esenler" class="district" data-district="Esenler" d="M 368.91,297.53 L 365.39,298.65 L 363.84,295.19 L 359.35,294.26 L 358.66,292.98 L 358.89,290.05 L 357.60,287.05 L 356.85,286.93 L 356.85,283.79 L 357.46,280.32 L 359.02,278.01 L 356.45,277.61 L 352.46,281.34 L 348.62,279.35 L 352.29,271.78 L 355.22,262.22 L 354.98,259.06 L 360.14,267.87 L 366.26,274.94 L 366.15,278.19 L 369.02,284.24 L 368.67,292.43 L 370.08,295.34 L 373.27,297.74 L 374.85,304.34 L 374.28,305.19 L 369.42,306.18 L 369.64,304.43 L 368.89,303.47 L 371.04,300.09 L 368.91,297.53 Z" tabindex="0" role="button" aria-label="Esenler"></path>
<path id="Esenyurt" class="district" data-district="Esenyurt" d="M 278.65,275.67 L 285.33,281.58 L 292.61,284.63 L 289.14,286.57 L 292.06,290.53 L 292.42,292.80 L 294.97,293.56 L 292.40,296.32 L 292.56,298.70 L 296.83,300.26 L 296.18,307.18 L 294.81,308.78 L 296.83,310.36 L 295.76,312.28 L 295.44,315.23 L 292.59,315.22 L 288.95,312.37 L 281.98,311.68 L 268.14,304.31 L 266.00,297.06 L 267.70,292.43 L 267.80,287.40 L 264.89,279.91 L 268.34,271.43 L 268.02,270.65 L 270.00,268.96 L 270.80,265.69 L 272.24,265.17 L 272.37,264.08 L 274.29,265.61 L 277.05,270.30 L 278.65,275.67 Z" tabindex="0" role="button" aria-label="Esenyurt"></path>
<path id="Eyüpsultan" class="district" data-district="Eyüpsultan" d="M 395.84,214.23 L 395.04,231.54 L 397.33,231.56 L 397.01,232.82 L 397.91,233.51 L 401.35,232.75 L 404.37,235.21 L 404.51,238.41 L 399.46,245.25 L 400.16,246.43 L 398.05,248.89 L 397.79,250.51 L 399.13,254.00 L 397.60,256.13 L 400.34,258.79 L 395.77,260.56 L 395.86,262.77 L 401.04,267.31 L 401.29,270.12 L 399.75,270.67 L 399.60,273.35 L 396.95,276.66 L 396.36,279.73 L 393.07,282.19 L 391.82,281.47 L 392.88,285.60 L 389.82,286.53 L 388.63,288.05 L 388.42,289.32 L 389.93,292.57 L 392.12,294.00 L 390.08,295.50 L 390.34,297.89 L 386.26,302.56 L 382.96,299.07 L 380.75,292.82 L 381.89,293.16 L 378.91,288.33 L 380.40,287.79 L 381.09,286.34 L 383.31,287.39 L 383.98,286.11 L 385.28,286.95 L 385.25,285.96 L 386.42,286.18 L 387.61,285.09 L 388.54,285.72 L 390.01,284.21 L 389.00,284.31 L 388.08,282.43 L 388.92,281.80 L 388.73,280.93 L 387.92,280.93 L 387.23,279.16 L 385.30,278.78 L 382.92,280.46 L 379.99,277.71 L 381.42,276.36 L 380.59,274.15 L 383.53,266.70 L 381.30,264.52 L 382.31,261.70 L 381.32,260.68 L 382.77,258.35 L 381.72,255.78 L 378.76,255.75 L 378.74,254.13 L 377.30,251.47 L 375.26,252.03 L 377.19,250.21 L 375.11,248.23 L 374.32,245.77 L 370.77,243.68 L 368.77,239.54 L 366.99,239.37 L 364.75,241.00 L 364.30,240.04 L 365.11,236.82 L 363.82,235.59 L 361.49,236.05 L 361.64,233.27 L 359.49,231.90 L 352.11,236.43 L 351.44,238.23 L 348.29,241.20 L 348.42,245.54 L 346.51,244.48 L 341.32,244.15 L 341.30,241.60 L 342.13,240.68 L 341.77,235.49 L 341.14,234.75 L 341.74,231.93 L 340.76,229.75 L 340.74,224.20 L 343.13,223.76 L 343.77,220.03 L 342.37,217.80 L 342.87,212.66 L 341.65,210.36 L 342.91,209.35 L 343.51,207.16 L 341.32,205.00 L 338.83,200.46 L 333.99,198.85 L 334.35,195.73 L 330.95,191.64 L 330.13,188.25 L 330.49,186.08 L 327.14,180.75 L 325.47,180.44 L 323.58,174.71 L 326.05,174.29 L 326.51,171.20 L 328.00,169.36 L 330.40,156.04 L 334.45,157.69 L 336.90,156.95 L 341.37,160.97 L 343.28,161.64 L 343.19,162.74 L 349.33,165.08 L 353.22,165.37 L 356.96,168.02 L 364.30,170.71 L 369.73,172.10 L 375.47,171.62 L 378.48,173.33 L 383.20,173.38 L 389.27,177.03 L 394.03,178.46 L 393.65,180.23 L 391.60,181.52 L 390.44,184.20 L 390.61,185.65 L 387.41,194.22 L 388.43,195.47 L 388.33,197.88 L 389.15,197.69 L 389.19,199.27 L 389.65,198.68 L 391.01,199.70 L 395.53,200.06 L 395.76,200.85 L 395.59,203.27 L 393.38,209.13 L 394.51,213.52 L 395.84,214.23 Z" tabindex="0" role="button" aria-label="Eyüpsultan"></path>
<path id="Fatih" class="district" data-district="Fatih" d="M 404.77,306.52 L 408.59,306.17 L 409.20,308.49 L 408.40,311.97 L 405.09,314.35 L 405.52,314.64 L 395.87,314.12 L 395.72,315.68 L 398.59,316.18 L 392.73,317.25 L 390.10,316.18 L 389.84,314.37 L 385.57,319.57 L 386.18,319.93 L 386.46,319.05 L 386.24,320.00 L 385.55,319.77 L 383.98,321.66 L 382.13,321.60 L 383.17,306.88 L 384.20,304.48 L 390.34,297.89 L 390.00,295.76 L 390.99,294.54 L 392.22,293.95 L 394.30,298.58 L 397.12,300.40 L 400.54,305.02 L 404.77,306.52 Z" tabindex="0" role="button" aria-label="Fatih"></path>
<path id="Gaziosmanpaşa" class="district" data-district="Gaziosmanpaşa" d="M 388.54,285.72 L 385.25,285.96 L 385.28,286.95 L 383.98,286.11 L 383.31,287.39 L 381.09,286.34 L 380.40,287.79 L 378.91,288.33 L 378.33,286.31 L 375.84,283.95 L 374.76,281.31 L 366.92,275.60 L 364.54,272.67 L 367.04,269.87 L 370.32,268.19 L 378.15,267.80 L 382.91,266.03 L 383.53,266.70 L 380.59,274.15 L 381.42,276.36 L 379.91,277.34 L 380.73,279.01 L 382.92,280.46 L 385.30,278.78 L 387.23,279.16 L 387.92,280.93 L 388.73,280.93 L 388.92,281.80 L 388.08,282.43 L 389.00,284.31 L 390.01,284.21 L 388.54,285.72 Z" tabindex="0" role="button" aria-label="Gaziosmanpaşa"></path>
<path id="Güngören" class="district" data-district="Güngören" d="M 368.91,297.53 L 371.04,300.09 L 368.89,303.47 L 369.64,304.43 L 369.42,306.18 L 374.04,305.34 L 374.85,304.34 L 374.97,305.01 L 374.57,308.26 L 373.03,311.78 L 368.67,314.53 L 367.35,312.02 L 367.08,306.65 L 364.67,311.04 L 363.08,312.01 L 358.97,306.11 L 360.14,305.33 L 358.53,300.87 L 360.13,299.71 L 363.75,300.83 L 363.32,295.21 L 364.58,296.07 L 365.39,298.65 L 368.91,297.53 Z" tabindex="0" role="button" aria-label="Güngören"></path>
<path id="Sultangazi" class="district" data-district="Sultangazi" d="M 369.25,268.60 L 364.54,272.67 L 360.14,267.87 L 353.19,256.66 L 353.12,253.15 L 346.41,247.51 L 344.98,245.63 L 345.14,244.58 L 348.42,245.54 L 348.29,241.20 L 351.44,238.23 L 352.11,236.43 L 359.49,231.90 L 361.64,233.27 L 361.49,236.05 L 363.82,235.59 L 365.11,236.82 L 364.30,240.04 L 364.75,241.00 L 366.99,239.37 L 368.77,239.54 L 369.99,242.72 L 374.32,245.77 L 375.11,248.23 L 377.19,250.21 L 375.26,252.03 L 377.30,251.47 L 378.74,254.13 L 378.76,255.75 L 381.72,255.78 L 382.77,258.35 L 381.32,260.68 L 382.31,261.70 L 381.30,264.52 L 382.91,266.03 L 378.15,267.80 L 369.25,268.60 Z" tabindex="0" role="button" aria-label="Sultangazi"></path>
<path id="Zeytinburnu" class="district" data-district="Zeytinburnu" d="M 375.78,326.06 L 371.21,325.17 L 371.92,325.63 L 371.31,326.80 L 370.67,324.59 L 372.34,317.55 L 371.42,315.37 L 374.57,308.26 L 374.97,305.01 L 374.25,300.80 L 379.30,298.31 L 382.45,301.79 L 384.11,300.37 L 386.16,302.46 L 383.17,306.88 L 382.13,321.60 L 379.28,322.73 L 377.98,324.84 L 375.78,326.06 Z" tabindex="0" role="button" aria-label="Zeytinburnu"></path>
<path id="Küçükçekmece" class="district" data-district="Küçükçekmece" d="M 318.07,325.61 L 311.71,292.01 L 312.07,287.72 L 313.86,284.42 L 313.50,282.88 L 318.04,283.43 L 331.81,281.82 L 339.91,283.29 L 338.49,291.01 L 339.57,295.65 L 339.67,301.09 L 338.65,300.69 L 337.69,306.85 L 338.59,307.42 L 339.96,314.97 L 341.72,317.60 L 343.27,317.87 L 343.72,318.86 L 341.62,318.12 L 339.44,315.50 L 336.58,315.00 L 334.19,317.16 L 335.13,320.60 L 335.73,320.54 L 336.16,323.08 L 335.63,323.48 L 332.36,320.92 L 328.85,322.85 L 324.93,322.29 L 325.65,323.60 L 325.83,324.41 L 325.61,327.08 L 324.69,325.37 L 325.80,324.67 L 325.62,323.70 L 324.73,322.51 L 324.27,320.91 L 323.64,320.59 L 325.67,324.44 L 323.32,324.74 L 324.52,325.04 L 325.45,327.25 L 322.90,325.74 L 322.43,324.63 L 323.33,324.68 L 322.62,323.29 L 322.23,324.86 L 320.77,325.59 L 318.07,325.61 Z" tabindex="0" role="button" aria-label="Küçükçekmece"></path>
</svg>
